# xmcd
#
# Track frame offsets: 
#        150
#        17479
#        32785
#        50370
#        62732
#        77229
#        91401
#        110064
#        123844
#        134702
#
# Disc length: 2070 seconds
#
# Revision: 2
# Processed by: cddbd v1.5.2PL0 Copyright (c) Steve Scherf et al.
# Submitted via: ExactAudioCopy v1.0b3
#
DISCID=8508140a
DTITLE=Harris, Emmylou - Evangeline [OAS]
DYEAR=1981
DGENRE=Country
TTITLE0=I Don't Have To Crawl
TTITLE1=How High The Moon
TTITLE2=Harris, Emmylou with Waylon Jennings - Spanish Johnny
TTITLE3=Bad Moon Rising
TTITLE4=Evangeline
TTITLE5=Hot Burrito #2
TTITLE6=Millworker
TTITLE7=Oh Atlanta
TTITLE8=Mister Sandman
TTITLE9=Ashes By Now
EXTD=
EXTT0=
EXTT1=
EXTT2=
EXTT3=
EXTT4=
EXTT5=
EXTT6=
EXTT7=
EXTT8=
EXTT9=
PLAYORDER=
